<?xml version="1.0" standalone="no"?>
<!DOCTYPE svg PUBLIC "-//W3C//DTD SVG 20010904//EN"
 "http://www.w3.org/TR/2001/REC-SVG-20010904/DTD/svg10.dtd">
<svg version="1.0" xmlns="http://www.w3.org/2000/svg"
 width="300.000000pt" height="329.000000pt" viewBox="0 0 300.000000 329.000000"
 preserveAspectRatio="xMidYMid meet">
<metadata>
Created by potrace 1.10, written by Peter Selinger 2001-2011
</metadata>
<g transform="translate(0.000000,329.000000) scale(0.100000,-0.100000)"
fill="#000000" stroke="none">
<path d="M1365 3144 c-209 -32 -347 -74 -505 -155 -267 -136 -492 -364 -629
-636 l-41 -83 107 0 108 0 30 58 c76 145 246 328 400 428 491 320 1130 255
1545 -156 88 -87 173 -197 216 -282 l24 -48 105 0 c58 0 105 2 105 5 0 15 -79
160 -125 230 -211 322 -544 545 -926 620 -81 16 -352 28 -414 19z m398 -59
c180 -32 374 -111 537 -220 93 -63 242 -204 314 -299 59 -76 146 -222 146
-243 0 -9 -17 -13 -55 -13 l-55 0 -66 102 c-119 183 -313 358 -509 456 -181
90 -415 139 -620 129 -417 -21 -778 -229 -1015 -584 -64 -97 -66 -98 -109
-101 -75 -6 -77 -1 -34 80 51 98 138 214 231 308 217 218 509 360 828 400 92
12 299 4 407 -15z"/>
<path d="M421 2135 c-117 -33 -204 -102 -255 -204 -89 -174 -69 -428 44 -571
88 -111 284 -171 449 -136 122 26 208 93 256 200 44 98 47 91 -50 121 -47 14
-91 28 -99 31 -10 4 -19 -10 -30 -49 -20 -68 -48 -104 -100 -128 -57 -26 -112
-24 -174 7 -95 47 -138 149 -130 307 8 164 89 260 216 260 33 0 70 -7 88 -16
36 -19 94 -81 94 -102 0 -7 5 -17 10 -20 10 -6 200 33 200 42 0 2 -13 30 -29
61 -39 77 -102 139 -180 175 -54 26 -78 31 -160 34 -65 2 -114 -2 -150 -12z
m237 -39 c94 -25 169 -83 211 -163 14 -27 -3 -39 -65 -48 -37 -5 -41 -3 -71
39 -42 58 -107 90 -182 89 -104 -1 -180 -53 -227 -155 -27 -58 -29 -72 -29
-178 0 -103 3 -121 26 -170 36 -76 75 -119 134 -146 120 -56 239 -13 302 110
22 43 27 48 51 43 50 -10 82 -26 82 -42 0 -51 -84 -151 -155 -185 -133 -64
-349 -36 -457 59 -159 140 -173 483 -26 640 94 101 262 145 406 107z"/>
<path d="M1050 1681 l0 -458 102 1 101 1 -2 178 -2 177 64 0 64 0 109 -171
c59 -94 113 -173 119 -175 6 -3 65 -3 132 -2 l120 3 -134 179 c-73 99 -132
180 -131 181 2 1 21 7 44 13 57 16 103 50 139 100 29 42 30 48 30 146 0 97 -2
105 -30 151 -18 29 -49 61 -75 77 -81 50 -140 58 -407 58 l-243 0 0 -459z
m569 396 c106 -41 150 -105 151 -220 0 -105 -38 -165 -132 -207 -26 -11 -54
-30 -62 -42 -13 -19 -13 -25 4 -57 10 -20 42 -68 72 -106 80 -104 118 -162
111 -169 -12 -11 -129 -6 -145 7 -8 6 -55 75 -103 152 -109 175 -120 185 -190
185 -106 0 -115 -17 -115 -210 l0 -140 -60 0 -60 0 0 416 0 416 243 -4 c196
-4 250 -8 286 -21z"/>
<path d="M1240 1998 c-18 -19 -20 -35 -20 -144 0 -120 0 -123 26 -143 24 -19
38 -21 143 -18 132 3 179 19 219 77 30 45 31 129 0 178 -35 56 -82 72 -225 72
-113 0 -124 -2 -143 -22z m300 -36 c50 -24 71 -85 50 -144 -23 -65 -52 -77
-208 -83 l-132 -4 0 124 0 125 128 0 c101 0 134 -4 162 -18z"/>
<path d="M1930 1680 l0 -459 96 2 96 2 -4 377 c-2 207 0 374 3 370 4 -4 12
-35 18 -70 7 -35 50 -200 97 -368 46 -167 84 -306 84 -309 0 -2 39 -3 88 -2
l87 2 92 320 c51 176 95 346 99 378 4 31 11 57 16 57 6 0 8 -14 4 -32 -3 -18
-6 -188 -7 -377 l-1 -345 96 0 96 -1 3 458 2 457 -157 0 c-87 0 -158 -2 -158
-5 0 -3 -36 -140 -81 -305 -56 -211 -79 -313 -77 -343 l4 -42 13 30 c7 17 46
154 87 305 40 151 78 285 84 298 10 22 14 23 122 20 l113 -3 3 -412 2 -413
-53 0 -54 0 -6 167 c-4 91 -7 248 -7 348 0 156 -2 185 -16 196 -29 24 -47 -18
-128 -297 -42 -148 -87 -300 -99 -339 l-22 -70 -57 -3 -57 -3 -20 68 c-11 37
-50 175 -86 307 -77 276 -94 325 -117 340 -40 25 -43 2 -48 -362 l-5 -347 -53
-3 -52 -3 2 413 3 413 111 3 c99 2 112 1 119 -15 4 -10 45 -155 90 -322 46
-167 88 -308 94 -314 28 -28 6 91 -71 380 l-83 313 -152 0 -153 0 0 -460z"/>
<path d="M229 1023 c203 -403 562 -680 1004 -775 135 -29 406 -31 540 -5 447
89 818 370 1021 774 20 40 36 75 36 78 0 3 -47 5 -105 5 l-105 0 -24 -47 c-43
-85 -128 -196 -216 -283 -359 -358 -904 -457 -1371 -251 -231 102 -466 316
-574 523 l-30 58 -108 0 -107 0 39 -77z m215 -73 c174 -259 445 -457 733 -534
540 -144 1092 68 1407 542 l68 102 54 0 c37 0 54 -4 54 -13 0 -7 -20 -48 -45
-92 -158 -277 -434 -506 -738 -614 -163 -57 -271 -74 -467 -74 -190 0 -293 16
-448 69 -268 92 -534 293 -688 519 -70 102 -116 189 -106 199 3 4 29 6 56 4
l50 -3 70 -105z"/>
</g>
</svg>
